<svg width="34" height="34" viewBox="0 0 34 34" fill="none" xmlns="http://www.w3.org/2000/svg">
<rect x="0.5" y="0.5" width="33" height="33" rx="9.5" fill="#1F222A" stroke="#35383F"/>
<g clip-path="url(#clip0_1567_6189)">
<path d="M27 17C27 11.4772 22.5228 7 17 7C11.4772 7 7 11.4772 7 17C7 21.6896 10.2288 25.6248 14.5844 26.7056V20.056H12.5224V17H14.5844V15.6832C14.5844 12.2796 16.1248 10.702 19.4664 10.702C20.1 10.702 21.1932 10.8264 21.6404 10.9504V13.7204C21.4044 13.6956 20.9944 13.6832 20.4852 13.6832C18.8456 13.6832 18.212 14.3044 18.212 15.9192V17H21.4784L20.9172 20.056H18.212V26.9268C23.1636 26.3288 27.0004 22.1128 27.0004 17H27Z" fill="#0866FF"/>
<path d="M20.9168 20.0559L21.478 16.9999H18.2116V15.9191C18.2116 14.3043 18.8452 13.6831 20.4848 13.6831C20.994 13.6831 21.404 13.6955 21.64 13.7203V10.9503C21.1928 10.8259 20.0996 10.7019 19.466 10.7019C16.1244 10.7019 14.584 12.2795 14.584 15.6831V16.9999H12.522V20.0559H14.584V26.7055C15.3576 26.8975 16.1668 26.9999 16.9996 26.9999C17.4096 26.9999 17.814 26.9747 18.2112 26.9267V20.0559H20.9164H20.9168Z" fill="white"/>
</g>
<defs>
<clipPath id="clip0_1567_6189">
<rect width="20" height="20" fill="white" transform="translate(7 7)"/>
</clipPath>
</defs>
</svg>
