<svg width="34" height="34" viewBox="0 0 34 34" fill="none" xmlns="http://www.w3.org/2000/svg">
<rect x="0.5" y="0.5" width="33" height="33" rx="9.5" fill="#1F222A" stroke="#35383F"/>
<g clip-path="url(#clip0_1567_6183)">
<path d="M17 8.80078C19.6719 8.80078 19.9883 8.8125 21.0391 8.85937C22.0156 8.90234 22.543 9.06641 22.8945 9.20313C23.3594 9.38281 23.6953 9.60156 24.043 9.94922C24.3945 10.3008 24.6094 10.6328 24.7891 11.0977C24.9258 11.4492 25.0898 11.9805 25.1328 12.9531C25.1797 14.0078 25.1914 14.3242 25.1914 16.9922C25.1914 19.6641 25.1797 19.9805 25.1328 21.0313C25.0898 22.0078 24.9258 22.5352 24.7891 22.8867C24.6094 23.3516 24.3906 23.6875 24.043 24.0352C23.6914 24.3867 23.3594 24.6016 22.8945 24.7813C22.543 24.918 22.0117 25.082 21.0391 25.125C19.9844 25.1719 19.668 25.1836 17 25.1836C14.3281 25.1836 14.0117 25.1719 12.9609 25.125C11.9844 25.082 11.457 24.918 11.1055 24.7813C10.6406 24.6016 10.3047 24.3828 9.95703 24.0352C9.60547 23.6836 9.39063 23.3516 9.21094 22.8867C9.07422 22.5352 8.91016 22.0039 8.86719 21.0313C8.82031 19.9766 8.80859 19.6602 8.80859 16.9922C8.80859 14.3203 8.82031 14.0039 8.86719 12.9531C8.91016 11.9766 9.07422 11.4492 9.21094 11.0977C9.39063 10.6328 9.60938 10.2969 9.95703 9.94922C10.3086 9.59766 10.6406 9.38281 11.1055 9.20313C11.457 9.06641 11.9883 8.90234 12.9609 8.85937C14.0117 8.8125 14.3281 8.80078 17 8.80078ZM17 7C14.2852 7 13.9453 7.01172 12.8789 7.05859C11.8164 7.10547 11.0859 7.27734 10.4531 7.52344C9.79297 7.78125 9.23438 8.12109 8.67969 8.67969C8.12109 9.23438 7.78125 9.79297 7.52344 10.4492C7.27734 11.0859 7.10547 11.8125 7.05859 12.875C7.01172 13.9453 7 14.2852 7 17C7 19.7148 7.01172 20.0547 7.05859 21.1211C7.10547 22.1836 7.27734 22.9141 7.52344 23.5469C7.78125 24.207 8.12109 24.7656 8.67969 25.3203C9.23438 25.875 9.79297 26.2188 10.4492 26.4727C11.0859 26.7188 11.8125 26.8906 12.875 26.9375C13.9414 26.9844 14.2813 26.9961 16.9961 26.9961C19.7109 26.9961 20.0508 26.9844 21.1172 26.9375C22.1797 26.8906 22.9102 26.7188 23.543 26.4727C24.1992 26.2188 24.7578 25.875 25.3125 25.3203C25.8672 24.7656 26.2109 24.207 26.4648 23.5508C26.7109 22.9141 26.8828 22.1875 26.9297 21.125C26.9766 20.0586 26.9883 19.7188 26.9883 17.0039C26.9883 14.2891 26.9766 13.9492 26.9297 12.8828C26.8828 11.8203 26.7109 11.0898 26.4648 10.457C26.2188 9.79297 25.8789 9.23438 25.3203 8.67969C24.7656 8.125 24.207 7.78125 23.5508 7.52734C22.9141 7.28125 22.1875 7.10938 21.125 7.0625C20.0547 7.01172 19.7148 7 17 7Z" fill="white"/>
<path d="M17 11.8633C14.1641 11.8633 11.8633 14.1641 11.8633 17C11.8633 19.8359 14.1641 22.1367 17 22.1367C19.8359 22.1367 22.1367 19.8359 22.1367 17C22.1367 14.1641 19.8359 11.8633 17 11.8633ZM17 20.332C15.1602 20.332 13.668 18.8398 13.668 17C13.668 15.1602 15.1602 13.668 17 13.668C18.8398 13.668 20.332 15.1602 20.332 17C20.332 18.8398 18.8398 20.332 17 20.332Z" fill="white"/>
<path d="M23.5391 11.6602C23.5391 12.3242 23 12.8594 22.3398 12.8594C21.6758 12.8594 21.1406 12.3203 21.1406 11.6602C21.1406 10.9961 21.6797 10.4609 22.3398 10.4609C23 10.4609 23.5391 11 23.5391 11.6602Z" fill="white"/>
</g>
<defs>
<clipPath id="clip0_1567_6183">
<rect width="20" height="20" fill="white" transform="translate(7 7)"/>
</clipPath>
</defs>
</svg>
