<svg width="24" height="24" viewBox="0 0 24 24" fill="none" xmlns="http://www.w3.org/2000/svg">
<path d="M4.125 9.05C3.7384 9.05 3.425 9.3634 3.425 9.75C3.425 10.1366 3.7384 10.45 4.125 10.45V9.05ZM19.875 10.45C20.2616 10.45 20.575 10.1366 20.575 9.75C20.575 9.3634 20.2616 9.05 19.875 9.05V10.45ZM4.21948 14.1124C3.83288 14.1124 3.51948 14.4258 3.51948 14.8124C3.51948 15.199 3.83288 15.5124 4.21948 15.5124V14.1124ZM19.9695 15.5124C20.3561 15.5124 20.6695 15.199 20.6695 14.8124C20.6695 14.4258 20.3561 14.1124 19.9695 14.1124V15.5124ZM20.3 12C20.3 16.584 16.584 20.3 12 20.3V21.7C17.3572 21.7 21.7 17.3572 21.7 12H20.3ZM12 20.3C7.41604 20.3 3.7 16.584 3.7 12H2.3C2.3 17.3572 6.64284 21.7 12 21.7V20.3ZM3.7 12C3.7 7.41604 7.41604 3.7 12 3.7V2.3C6.64284 2.3 2.3 6.64284 2.3 12H3.7ZM12 3.7C16.584 3.7 20.3 7.41604 20.3 12H21.7C21.7 6.64284 17.3572 2.3 12 2.3V3.7ZM12 20.3C11.688 20.3 11.3355 20.1584 10.9539 19.7895C10.5689 19.4173 10.1903 18.8449 9.85708 18.0834C9.19162 16.5623 8.7625 14.4121 8.7625 12H7.3625C7.3625 14.5585 7.81482 16.9082 8.57446 18.6445C8.95382 19.5117 9.42362 20.2573 9.9808 20.796C10.5414 21.3379 11.2247 21.7 12 21.7V20.3ZM8.7625 12C8.7625 9.58791 9.19162 7.43765 9.85708 5.91661C10.1903 5.15505 10.5689 4.58271 10.9539 4.21053C11.3355 3.84161 11.688 3.7 12 3.7V2.3C11.2247 2.3 10.5414 2.66207 9.9808 3.204C9.42362 3.74267 8.95382 4.48835 8.57446 5.35547C7.81482 7.09178 7.3625 9.44152 7.3625 12H8.7625ZM12 21.7C12.7753 21.7 13.4586 21.3379 14.0192 20.796C14.5764 20.2573 15.0462 19.5117 15.4255 18.6445C16.1852 16.9082 16.6375 14.5585 16.6375 12H15.2375C15.2375 14.4121 14.8084 16.5623 14.1429 18.0834C13.8097 18.8449 13.4311 19.4173 13.0461 19.7895C12.6645 20.1584 12.312 20.3 12 20.3V21.7ZM16.6375 12C16.6375 9.44152 16.1852 7.09178 15.4255 5.35547C15.0462 4.48835 14.5764 3.74267 14.0192 3.204C13.4586 2.66207 12.7753 2.3 12 2.3V3.7C12.312 3.7 12.6645 3.84161 13.0461 4.21053C13.4311 4.58271 13.8097 5.15505 14.1429 5.91661C14.8084 7.43765 15.2375 9.58791 15.2375 12H16.6375ZM4.125 10.45H19.875V9.05H4.125V10.45ZM4.21948 15.5124H19.9695V14.1124H4.21948V15.5124Z" fill="black"/>
</svg>
