<svg width="34" height="34" viewBox="0 0 34 34" fill="none" xmlns="http://www.w3.org/2000/svg">
<rect x="0.5" y="0.5" width="33" height="33" rx="9.5" fill="#1F222A" stroke="#35383F"/>
<g clip-path="url(#clip0_1567_6179)">
<path d="M25.5236 7H8.47639C8.08483 7 7.7093 7.15555 7.43242 7.43242C7.15555 7.7093 7 8.08483 7 8.47639V25.5236C7 25.9152 7.15555 26.2907 7.43242 26.5676C7.7093 26.8445 8.08483 27 8.47639 27H25.5236C25.9152 27 26.2907 26.8445 26.5676 26.5676C26.8445 26.2907 27 25.9152 27 25.5236V8.47639C27 8.08483 26.8445 7.7093 26.5676 7.43242C26.2907 7.15555 25.9152 7 25.5236 7ZM12.9611 24.0375H9.95417V14.4861H12.9611V24.0375ZM11.4556 13.1625C11.1145 13.1606 10.7816 13.0577 10.4989 12.8667C10.2163 12.6758 9.99653 12.4054 9.8674 12.0897C9.73826 11.774 9.70554 11.4272 9.77336 11.0929C9.84118 10.7586 10.0065 10.4519 10.2485 10.2115C10.4904 9.97107 10.7982 9.80772 11.1329 9.74205C11.4676 9.67638 11.8143 9.71133 12.1291 9.84249C12.444 9.97365 12.7129 10.1951 12.9021 10.479C13.0912 10.7629 13.1919 11.0964 13.1917 11.4375C13.1949 11.6659 13.1521 11.8925 13.0658 12.104C12.9796 12.3155 12.8517 12.5074 12.6896 12.6684C12.5276 12.8294 12.3349 12.9561 12.1229 13.041C11.9108 13.1258 11.6839 13.1672 11.4556 13.1625ZM24.0444 24.0458H21.0389V18.8278C21.0389 17.2889 20.3847 16.8139 19.5403 16.8139C18.6486 16.8139 17.7736 17.4861 17.7736 18.8667V24.0458H14.7667V14.4931H17.6583V15.8167H17.6972C17.9875 15.2292 19.0042 14.225 20.5556 14.225C22.2333 14.225 24.0458 15.2208 24.0458 18.1375L24.0444 24.0458Z" fill="#0A66C2"/>
</g>
<defs>
<clipPath id="clip0_1567_6179">
<rect width="20" height="20" fill="white" transform="translate(7 7)"/>
</clipPath>
</defs>
</svg>
