<svg width="171" height="71" viewBox="0 0 171 71" fill="none" xmlns="http://www.w3.org/2000/svg">
<path d="M0 0H78.2035V16.5947H0V0ZM0 27.2377H78.2035V43.8323H0V27.2377ZM0 54.4053H78.2035V71H0V54.4053Z" fill="white"/>
<path d="M93.8867 0H146.746C159.908 0 170.69 10.783 170.69 23.9467C170.69 37.1105 159.908 47.8935 146.746 47.8935H110.48V71H93.8867V31.3688H146.746C150.807 31.3688 154.167 28.0079 154.167 23.9467C154.167 19.8856 150.807 16.5247 146.746 16.5247H93.8867V0Z" fill="white"/>
<path d="M84.5752 0V0.280079L93.8868 16.4546V0H84.5752Z" fill="white"/>
</svg>
