<svg width="83" height="34" viewBox="0 0 83 34" fill="none" xmlns="http://www.w3.org/2000/svg">
<path d="M0 0.0380859H38.027V7.97569H0V0.0380859ZM0 13.033H38.027V20.9706H0V13.033ZM0 26.0614H38.027V33.999H0V26.0614Z" fill="white"/>
<path d="M45.6521 0.0334992H71.3552C77.7555 0.0334992 82.9983 5.19127 82.9983 11.4878C82.9983 17.7843 77.7555 22.9421 71.3552 22.9421H53.7205V33.9944H45.6521V15.0379H71.3552C73.3298 15.0379 74.9639 13.4303 74.9639 11.4878C74.9639 9.54524 73.3298 7.9376 71.3552 7.9376H45.6521V0V0.0334992Z" fill="white"/>
<path d="M41.1248 0.0380859V0.138558L45.6526 7.87522V0.0380859H41.1248Z" fill="white"/>
</svg>
