<svg width="60" height="24" viewBox="0 0 60 24" fill="none" xmlns="http://www.w3.org/2000/svg">
<path d="M0 0.0234375H27.4896V5.62737H0V0.0234375ZM0 9.19781H27.4896V14.8018H0V9.19781ZM0 18.3958H27.4896V23.9998H0V18.3958Z" fill="white"/>
<path d="M33.0027 0.0236504H51.5834C56.2101 0.0236504 60.0001 3.66502 60.0001 8.11034C60.0001 12.5557 56.2101 16.197 51.5834 16.197H38.8353V24H33.0027V10.6167H51.5834C53.0108 10.6167 54.1921 9.48177 54.1921 8.11034C54.1921 6.73892 53.0108 5.60393 51.5834 5.60393H33.0027V0V0.0236504Z" fill="white"/>
<path d="M29.7292 0.0234375V0.0943706L33.0024 5.55643V0.0234375H29.7292Z" fill="white"/>
</svg>
