<svg width="45" height="18" viewBox="0 0 45 18" fill="none" xmlns="http://www.w3.org/2000/svg">
<path d="M0 0.0175781H20.6172V4.22052H0V0.0175781ZM0 6.89836H20.6172V11.1013H0V6.89836ZM0 13.7969H20.6172V17.9998H0V13.7969Z" fill="white"/>
<path d="M24.752 0.0177378H38.6875C42.1575 0.0177378 45 2.74877 45 6.08276C45 9.41675 42.1575 12.1478 38.6875 12.1478H29.1264V18H24.752V7.96256H38.6875C39.758 7.96256 40.644 7.11133 40.644 6.08276C40.644 5.05419 39.758 4.20295 38.6875 4.20295H24.752V0V0.0177378Z" fill="white"/>
<path d="M22.2969 0.0175781V0.0707779L24.7517 4.16733V0.0175781H22.2969Z" fill="white"/>
</svg>
