<svg width="60" height="60" viewBox="0 0 60 60" fill="none" xmlns="http://www.w3.org/2000/svg">
<path d="M29.1288 9.58217C29.5114 8.90352 30.4886 8.90352 30.8711 9.58217L34.0753 15.2668L34.9464 14.7758L34.0753 15.2668C34.5034 16.0264 35.2407 16.5621 36.0954 16.7345L42.4919 18.0251C43.2556 18.1792 43.5575 19.1087 43.0303 19.6822L38.614 24.4861C38.0239 25.128 37.7423 25.9948 37.8424 26.8609L38.5916 33.3432C38.681 34.1171 37.8904 34.6915 37.182 34.3673L31.2485 31.6516C30.4557 31.2888 29.5443 31.2888 28.7515 31.6516L22.818 34.3673C22.1096 34.6915 21.319 34.1171 21.4084 33.3432L22.1576 26.8609C22.2577 25.9948 21.9761 25.128 21.386 24.4861L16.9697 19.6822C16.4425 19.1087 16.7445 18.1792 17.5081 18.0251L23.9046 16.7345C24.7593 16.5621 25.4966 16.0264 25.9247 15.2668L29.1288 9.58217Z" stroke="#0075FF" stroke-width="2"/>
<path d="M20.4002 43.5153L21.1269 44.2023L20.4002 43.5153C19.9875 43.9519 19.7928 44.5509 19.8701 45.1467L20.6197 50.923L15.3577 48.4252L14.9288 49.3286L15.3577 48.4252C14.8149 48.1675 14.1851 48.1675 13.6423 48.4252L14.0712 49.3286L13.6423 48.4252L8.38032 50.923L9.12985 45.1467C9.20716 44.5509 9.01254 43.9519 8.59979 43.5153L4.59815 39.2827L10.3234 38.2106C10.9139 38.1 11.4235 37.7298 11.7111 37.2023L14.5 32.0886L17.2889 37.2023C17.5765 37.7298 18.0861 38.1 18.6766 38.2106L24.4018 39.2827L20.4002 43.5153Z" stroke="#0075FF" stroke-width="2"/>
<path d="M51.4002 43.5153L52.1269 44.2023L51.4002 43.5153C50.9875 43.9519 50.7928 44.5509 50.8701 45.1467L51.6197 50.923L46.3577 48.4252L45.9288 49.3286L46.3577 48.4252C45.8149 48.1675 45.1851 48.1675 44.6423 48.4252L45.0712 49.3286L44.6423 48.4252L39.3803 50.923L40.1299 45.1467C40.2072 44.5509 40.0125 43.9519 39.5998 43.5153L35.5982 39.2827L41.3234 38.2106C41.9139 38.1 42.4235 37.7298 42.7111 37.2023L45.5 32.0886L48.2889 37.2023C48.5765 37.7298 49.0861 38.1 49.6766 38.2106L55.4018 39.2827L51.4002 43.5153Z" stroke="#0075FF" stroke-width="2"/>
</svg>
