<svg width="60" height="60" viewBox="0 0 60 60" fill="none" xmlns="http://www.w3.org/2000/svg">
<path d="M23.7949 47.5168C21.0171 48.1578 14.4359 48.286 10.3334 43.6706C5.20516 37.9014 6.48721 29.568 7.76926 27.0039C8.7949 24.9527 24.4359 10.3373 32.1282 3.28599C32.9829 4.14069 34.6923 6.61933 34.6923 9.69625C34.6923 10.466 34.6923 11.3444 34.6923 12.2606M50.718 24.4398C50.5043 23.7988 49.4359 22.0039 46.8718 19.9527C45.8548 19.139 44.1991 18.8004 42.3846 18.7341M42.3846 18.7341C39.6245 18.6332 36.4972 19.1627 34.6923 19.6093C34.6923 18.0929 34.6923 15.007 34.6923 12.2606M42.3846 18.7341C44.5214 17.8582 48.4542 15.1631 50.0769 13.5424C52 11.6218 51.7863 4.99539 52 2.00394C49.0086 1.79027 42.726 2.11376 40.4615 3.92702C37.2564 6.49357 35.7607 10.3375 34.6923 12.2606" stroke="#0075FF" stroke-width="2"/>
<path d="M2 52.0062L35.3333 18.6729" stroke="#0075FF" stroke-width="2"/>
<path d="M25.077 38.5446C23.795 38.1173 21.4094 37.4412 19.3078 35.3395C16.7437 32.7754 15.9799 30.8799 15.4616 28.2882C14.8205 25.0831 15.248 21.4506 15.4616 18.6729" stroke="#0075FF" stroke-width="2"/>
<path d="M34.3899 28.9298C33.1078 28.5025 30.7223 27.8263 28.6207 25.7247C26.0566 23.1606 25.2928 21.2651 24.7745 18.6734C24.1334 15.4683 24.5608 12.8969 24.7745 10.1191" stroke="#0075FF" stroke-width="2"/>
<circle cx="43.5" cy="44.5" r="13.5" stroke="#0075FF" stroke-width="2"/>
<path d="M42.5 53.423C42.5 53.9753 42.9477 54.423 43.5 54.423C44.0523 54.423 44.5 53.9753 44.5 53.423H42.5ZM44.5 53.423V37.8076H42.5V53.423H44.5Z" fill="#0075FF"/>
<path d="M38.4807 41.7115L43.4999 37.25L48.5192 41.7115" stroke="#0075FF" stroke-width="2" stroke-linecap="round"/>
</svg>
