<svg width="60" height="60" viewBox="0 0 60 60" fill="none" xmlns="http://www.w3.org/2000/svg">
<rect x="8" y="35" width="8" height="16" rx="1" stroke="#0075FF" stroke-width="2"/>
<path d="M16.5 48.5C20.5 50 29.2 53 32 53C35.5 53 53.5 44.5 54 43C54.5 41.5 52.5 40.5 50.5 40.5C48.5 40.5 40.5 44.5 38.5 45C36.9 45.4 28.8333 45.1667 25.5 45" stroke="#0075FF" stroke-width="2" stroke-linecap="round"/>
<path d="M16.5 37.0014C19 36.8348 24.3 36.7014 25.5 37.5014C27 38.5014 29.5 41.5 33.5 41C37.5 40.5 39.5 43.5 40 44" stroke="#0075FF" stroke-width="2" stroke-linecap="round"/>
<path d="M16.5 15.5C16.1 13.5 14.6667 11 14 10H21.5C24 10 29 10.5 32 13.5C35 16.5 35.0002 21 31 25C27.3648 28.635 22.2375 28.3465 19.5 26C16.0002 23 17 18 16.5 15.5Z" fill="white" stroke="#0075FF" stroke-width="2"/>
<path d="M33.9999 34C34 31 32.4999 28.5 30.4999 25.5C28.3877 22.3317 25.0001 17.5 23.0001 16" stroke="#0075FF" stroke-width="2" stroke-linecap="round"/>
<path d="M45.3861 21.3473C45.6443 20.0562 46.5696 18.4424 46.9999 17.7969H42.1585C40.5447 17.7969 37.317 18.1196 35.3804 20.0562C33.4438 21.9928 33.4437 24.8977 36.0259 27.4798C38.3726 29.8264 41.6824 29.6401 43.4495 28.1253C45.7088 26.1888 45.0633 22.9611 45.3861 21.3473Z" fill="white" stroke="#0075FF" stroke-width="2"/>
<path d="M33.9999 32.498C33.9999 30.5615 34.7401 28.0728 35.9999 26.498C37.9999 23.998 39.8991 22.6382 41.1901 21.6699" stroke="#0075FF" stroke-width="2" stroke-linecap="round"/>
</svg>
