<svg width="60" height="60" viewBox="0 0 60 60" fill="none" xmlns="http://www.w3.org/2000/svg">
<path d="M15.7273 1L44.2727 1V31.5C44.2727 32.6046 45.1682 33.5 46.2727 33.5H55.5547L30 58.5984L4.44531 33.5H13.7273C14.8318 33.5 15.7273 32.6046 15.7273 31.5V1Z" fill="white" stroke="#0075FF" stroke-width="2"/>
<path d="M29.7227 36.7773V35.1953C26.7637 35.0293 24.8984 33.4668 24.8008 30.8398H27.3008C27.4082 32.1387 28.3848 32.8613 29.7227 33.0176V28.8281L28.9414 28.6328C26.6172 28.0273 25.1719 26.8555 25.1719 24.8242C25.1719 22.5098 27.0762 20.9082 29.7227 20.6934V19.082H30.8555V20.6836C33.5801 20.8496 35.4062 22.4902 35.4453 24.7461H33.0039C32.8965 23.6719 32.0859 22.998 30.8555 22.8613V26.8066L31.5 26.9727C33.6094 27.4609 35.6406 28.5742 35.6406 31.0352C35.6406 33.3691 33.8926 35.0195 30.8555 35.1953V36.7773H29.7227ZM27.75 24.668C27.7402 25.7031 28.6973 26.2109 29.7227 26.5039V22.8711C28.4824 23.0371 27.7598 23.7402 27.75 24.668ZM30.8555 33.0078C32.2031 32.832 33.0918 32.0801 33.1016 31.0156C33.0918 29.9805 32.2129 29.502 30.8555 29.1211V33.0078Z" fill="#0075FF"/>
</svg>
